<svg version="1" xmlns="http://www.w3.org/2000/svg" width="693.333" height="693.333" viewBox="0 0 520.000000 520.000000"><path d="M239 .6c-16.7 2-22.1 2.8-33 5-6.9 1.4-19 4.7-27 7.4-38.7 12.7-71 32.3-100.4 60.9-42.4 41.4-68 92.6-76.8 153.6-1.7 11.9-1.7 53.1 0 65 6.1 42.5 21 81.6 43.3 114 15.1 22 37.4 45.3 58.4 61.1 36.1 27.1 74 42.8 120.5 50.1 16.2 2.5 55.8 2.5 72 0 57.4-9 104.8-32.2 144.9-71.2 42.1-40.9 67.5-90.6 76.8-150.5 2.2-14.3 2.5-54.6.5-68.5-2.4-16.8-6.4-34-11.2-48.5-13.3-40.6-35-75.2-65.6-105.1-40.1-39-87.9-62.6-144.4-71.4-10-1.6-49.8-2.9-58-1.9zM196 217v141h213v39H150V76h46v141z"/></svg>